<svg xmlns="http://www.w3.org/2000/svg" viewBox="0 0 64 64">
  <rect x="4" y="4" width="56" height="56" rx="4" fill="#7cb342"/>
  <rect x="4" y="4" width="56" height="14" rx="4" fill="#558b2f"/>
  <rect x="8" y="22" width="12" height="8" rx="2" fill="#5d4037"/>
  <rect x="24" y="22" width="12" height="8" rx="2" fill="#4e342e"/>
  <rect x="40" y="22" width="12" height="8" rx="2" fill="#5d4037"/>
  <rect x="8" y="34" width="12" height="8" rx="2" fill="#4e342e"/>
  <rect x="24" y="34" width="12" height="8" rx="2" fill="#5d4037"/>
  <rect x="40" y="34" width="12" height="8" rx="2" fill="#4e342e"/>
  <rect x="8" y="46" width="12" height="8" rx="2" fill="#5d4037"/>
  <rect x="24" y="46" width="12" height="8" rx="2" fill="#4e342e"/>
  <rect x="40" y="46" width="12" height="8" rx="2" fill="#5d4037"/>
  <rect x="4" y="4" width="56" height="56" rx="4" fill="none" stroke="#33691e" stroke-width="2"/>
</svg>
